<svg xmlns="http://www.w3.org/2000/svg" version="1.1" xmlns:xlink="http://www.w3.org/1999/xlink" xmlns:svgjs="http://svgjs.dev/svgjs" width="2000" height="1500" viewBox="0 0 2000 1500"><rect width="2000" height="1500" fill="#000000"></rect><g transform="matrix(0.4444444444444444,0,0,0.4444444444444444,555.5555555555557,250)"><svg viewBox="0 0 320 360" data-background-color="#f9f9f9" preserveAspectRatio="xMidYMid meet" height="2250" width="2000" xmlns="http://www.w3.org/2000/svg" xmlns:xlink="http://www.w3.org/1999/xlink"><g id="tight-bounds" transform="matrix(1,0,0,1,0,0)"><svg viewBox="0 0 320 360" height="360" width="320"><g><svg></svg></g><g><svg viewBox="0 0 320 360" height="360" width="320"><g><path d="M20.961 227.22l3.726 4.658-1.863-6.056c-0.466-2.795-3.726 0.466-1.863 1.398M25.153 224.425c1.397 2.329 2.795 4.658 2.795 6.987 0 3.261 2.795 4.658 5.123 5.589-3.261-3.726-5.124-13.974-7.918-12.576M204.017 26.929c7.918 0 15.371-0.932 23.756 0.931 20.495 5.124 37.729 15.371 49.374 29.811l32.606 52.169c1.397 13.042 4.192 27.482 3.726 43.319 3.261 0 2.795-4.658 6.521-5.59-3.726 9.316-5.59 20.961-6.521 34.469-2.329-7.453 0-18.632 0.466-24.687-3.261 5.124-5.124 1.397-5.124-0.932 0.466-3.726-1.397-3.261-2.795-4.658-5.124-4.658-8.384-9.782-12.11-17.7 2.329-6.055 2.795-14.905-4.658-19.563-2.329-1.397-5.124-3.726-6.521-7.453-1.863-5.124-5.124-11.179-4.193-19.097 0.466-2.329-6.987 5.124-11.179 1.863-18.166-12.576-36.332-27.016-58.224-39.127-11.645 0-20.029-4.192-24.221-9.316-3.726-4.658-0.932-10.713 4.658-11.179 3.261 0 6.987-0.932 9.782 0.932 0.466-1.863 2.329-4.192 4.657-4.192M157.904 16.215l0.932 0.466c4.658 0.932 6.987 7.453 12.11 5.124 0 3.261 0.466 6.521-0.466 8.85-1.397 3.726-5.59 3.726-8.85 3.726-31.208-1.863-49.374 11.179-68.471 22.358-5.124 3.261-10.713 5.59-14.906 9.782-20.029 18.632-41.921 35.866-47.045 70.335l-4.192 38.195c-0.466 4.192-5.124 8.384-4.192 13.508l3.26 22.824c-3.261-3.261-5.124 0.932-4.192 2.795 0.466 1.397 2.329 6.055 5.124 1.863 3.726 6.987 7.453 20.495 12.576 26.55 15.837 18.632 36.332 35.4 53.101 52.169 4.192-0.932 7.453-0.932 8.384-3.727 1.397 2.795-1.397 5.59-3.726 6.056 7.453 4.658 15.837 8.85 27.016 9.781 14.44 0.932 27.948 3.261 40.524 6.522 6.521-1.863 13.042-2.795 20.029-3.261 2.329 0 3.726-3.726 6.521-4.658l0.466-4.658c2.795 4.192 2.329-1.397 0.466-4.192 3.261 2.795 4.192 5.124 5.589 6.987 0-1.397 3.726-6.521 3.727-0.466l0.931-6.055c1.397-0.932 1.863 5.124 3.261 0.931 1.397-4.192 4.192-0.932 6.987-2.329-0.932 1.863-0.466 5.59 2.794 3.261l3.727-3.261c2.329 5.59 6.055 3.261 7.918 2.329 20.495-13.042 40.99-28.413 60.553-43.784l-0.466 6.055 2.329-7.453c2.329 2.329 4.192 0.466 5.124-0.931 2.795-4.658 6.521-9.316 12.577-13.508-7.453 20.029-16.303 35.866-27.482 48.908l-4.658 5.59c0 3.261-0.932 7.453-4.658 7.918-1.863 0.466-5.59-0.932-8.384 1.863-1.397 1.863 3.261 5.59-0.466 2.795-3.261-2.329-6.521 0-10.248 0.932-2.795 0.932 1.863 3.726 2.795 5.589 0.932 1.863 1.863 3.726 1.398 6.056l-5.124-5.59c-6.055 3.261-9.782 9.316-14.906 13.974-2.329 1.863-1.397 5.124-1.397 7.918-3.261 0-6.987-0.932-8.85 0.932-1.397 1.863-0.932 4.658-0.932 7.453-4.658-0.466-5.124-7.453-9.315-6.056-4.192 0.932-8.85 1.397-12.577 3.727 2.795 5.59-4.658 2.329-3.726 3.26-6.987-4.192-13.042-7.453-20.495-4.658-15.837-5.124-35.4-2.795-49.84-0.931 0-2.329 0.466-4.658-0.466-5.124-0.932 2.329-3.726 1.397-3.26 1.397-8.85-6.055-17.7-9.782-27.016-14.905-8.384 0.932-16.303-3.261-18.632-5.59-6.521-6.055-13.974-2.795-20.029-4.192-13.042-3.261-17.7-16.769-19.098-26.084-0.932-4.658-4.658-6.521-6.055-6.056-6.055-19.563-15.371-37.263-22.824-55.429-1.863-4.658-1.397-9.316-1.397-14.44 2.329 0.932 4.658 0.466 4.192-2.794-2.329-15.371-7.918-27.016-13.974-38.195 3.261-15.837 3.726-34.469 11.179-48.443 6.521-12.576 18.632-19.098 27.016-29.811 2.795-3.726 2.795-8.85 5.59-12.11 9.316-9.316 18.632-19.098 28.879-27.482 4.658-3.726 10.247 0 17.234-1.397 2.329-8.384 11.645-15.837 20.495-13.508 3.726 0.932 11.179-8.85 13.508-9.782 3.726-1.397 1.863 3.726 1.863 6.987 8.85-6.987 20.961-10.713 32.14-14.906" fill="#ffffff" fill-rule="nonzero" stroke="none" stroke-width="1" stroke-linecap="butt" stroke-linejoin="miter" stroke-miterlimit="10" stroke-dasharray="" stroke-dashoffset="0" font-family="none" font-weight="none" font-size="none" text-anchor="none" style="mix-blend-mode: normal" data-fill-palette-color="tertiary"></path></g><g transform="matrix(1,0,0,1,64,162.53335973074638)"><svg viewBox="0 0 192 34.933280538507226" height="34.933280538507226" width="192"><g><svg viewBox="0 0 192 34.933280538507226" height="34.933280538507226" width="192"><g><svg viewBox="0 0 192 34.933280538507226" height="34.933280538507226" width="192"><g><svg viewBox="0 0 192 34.933280538507226" height="34.933280538507226" width="192"><g id="textblocktransform"><svg viewBox="0 0 192 34.933280538507226" height="34.933280538507226" width="192" id="textblock"><g><svg viewBox="0 0 192 34.933280538507226" height="34.933280538507226" width="192"><g transform="matrix(1,0,0,1,0,0)"><svg width="192" viewBox="1.85 -36.83 252.53 45.96" height="34.933280538507226" data-palette-color="#030303"><path d="M22.1-22.43L20.93-20.83Q20.73-20.55 20.53-20.4 20.33-20.25 19.95-20.25L19.95-20.25Q19.58-20.25 19.14-20.56 18.7-20.88 18.03-21.25 17.35-21.63 16.39-21.94 15.43-22.25 14.03-22.25L14.03-22.25Q12.18-22.25 10.75-21.59 9.33-20.93 8.36-19.68 7.4-18.43 6.91-16.65 6.43-14.88 6.43-12.68L6.43-12.68Q6.43-10.38 6.95-8.59 7.48-6.8 8.43-5.59 9.38-4.38 10.74-3.74 12.1-3.1 13.8-3.1L13.8-3.1Q15.43-3.1 16.48-3.49 17.53-3.88 18.23-4.35 18.93-4.83 19.38-5.21 19.83-5.6 20.28-5.6L20.28-5.6Q20.85-5.6 21.13-5.18L21.13-5.18 22.38-3.55Q20.73-1.53 18.25-0.59 15.78 0.35 13.03 0.35L13.03 0.35Q10.65 0.35 8.61-0.53 6.58-1.4 5.08-3.06 3.58-4.73 2.71-7.15 1.85-9.58 1.85-12.68L1.85-12.68Q1.85-15.5 2.64-17.9 3.43-20.3 4.94-22.04 6.45-23.78 8.68-24.75 10.9-25.73 13.78-25.73L13.78-25.73Q16.43-25.73 18.48-24.86 20.53-24 22.1-22.43L22.1-22.43ZM45.6-16.2L45.6 0 43.62 0Q42.97 0 42.57-0.2 42.17-0.4 42.05-1.05L42.05-1.05 41.55-3.4Q40.55-2.5 39.6-1.79 38.65-1.07 37.6-0.59 36.55-0.1 35.36 0.15 34.17 0.4 32.72 0.4L32.72 0.4Q31.25 0.4 29.96-0.01 28.67-0.43 27.72-1.25 26.77-2.08 26.21-3.34 25.65-4.6 25.65-6.33L25.65-6.33Q25.65-7.83 26.47-9.21 27.3-10.6 29.14-11.68 30.97-12.75 33.95-13.44 36.92-14.13 41.22-14.23L41.22-14.23 41.22-16.2Q41.22-19.15 39.96-20.66 38.7-22.18 36.22-22.18L36.22-22.18Q34.6-22.18 33.48-21.76 32.37-21.35 31.56-20.84 30.75-20.33 30.16-19.91 29.57-19.5 29-19.5L29-19.5Q28.55-19.5 28.21-19.74 27.87-19.98 27.67-20.33L27.67-20.33 26.87-21.75Q28.97-23.78 31.4-24.78 33.82-25.78 36.77-25.78L36.77-25.78Q38.9-25.78 40.55-25.08 42.2-24.38 43.32-23.13 44.45-21.88 45.02-20.1 45.6-18.32 45.6-16.2L45.6-16.2ZM34.05-2.73L34.05-2.73Q35.22-2.73 36.2-2.96 37.17-3.2 38.03-3.64 38.9-4.08 39.69-4.7 40.47-5.33 41.22-6.13L41.22-6.13 41.22-11.4Q38.15-11.3 36-10.91 33.85-10.53 32.5-9.9 31.15-9.28 30.54-8.43 29.92-7.58 29.92-6.53L29.92-6.53Q29.92-5.53 30.25-4.8 30.57-4.08 31.12-3.61 31.67-3.15 32.42-2.94 33.17-2.73 34.05-2.73ZM56.8 0L52.35 0 52.35-25.33 54.9-25.33Q55.62-25.33 55.9-25.05 56.17-24.78 56.27-24.1L56.27-24.1 56.57-20.15Q57.87-22.8 59.78-24.29 61.7-25.78 64.27-25.78L64.27-25.78Q65.32-25.78 66.17-25.54 67.02-25.3 67.75-24.88L67.75-24.88 67.17-21.55Q67-20.93 66.4-20.93L66.4-20.93Q66.05-20.93 65.32-21.16 64.6-21.4 63.3-21.4L63.3-21.4Q60.97-21.4 59.41-20.05 57.85-18.7 56.8-16.13L56.8-16.13 56.8 0ZM72.99-36.83L77.44-36.83 77.44 0 72.99 0 72.99-36.83ZM95.54-25.73L95.54-25.73Q98.32-25.73 100.55-24.8 102.79-23.88 104.35-22.18 105.92-20.48 106.75-18.06 107.59-15.65 107.59-12.68L107.59-12.68Q107.59-9.68 106.75-7.28 105.92-4.88 104.35-3.18 102.79-1.48 100.55-0.56 98.32 0.35 95.54 0.35L95.54 0.35Q92.77 0.35 90.53-0.56 88.29-1.48 86.72-3.18 85.14-4.88 84.29-7.28 83.44-9.68 83.44-12.68L83.44-12.68Q83.44-15.65 84.29-18.06 85.14-20.48 86.72-22.18 88.29-23.88 90.53-24.8 92.77-25.73 95.54-25.73ZM95.54-3.13L95.54-3.13Q99.29-3.13 101.14-5.64 102.99-8.15 102.99-12.65L102.99-12.65Q102.99-17.18 101.14-19.7 99.29-22.23 95.54-22.23L95.54-22.23Q93.64-22.23 92.24-21.58 90.84-20.93 89.9-19.7 88.97-18.48 88.5-16.69 88.04-14.9 88.04-12.65L88.04-12.65Q88.04-10.4 88.5-8.63 88.97-6.85 89.9-5.64 90.84-4.42 92.24-3.78 93.64-3.13 95.54-3.13ZM113.24-36.83L117.71-36.83 117.71-15.15 118.86-15.15Q119.36-15.15 119.69-15.29 120.01-15.43 120.41-15.85L120.41-15.85 128.41-24.43Q128.79-24.83 129.16-25.08 129.54-25.33 130.16-25.33L130.16-25.33 134.21-25.33 124.89-15.4Q124.54-14.98 124.2-14.65 123.86-14.33 123.44-14.08L123.44-14.08Q123.89-13.78 124.25-13.39 124.61-13 124.94-12.5L124.94-12.5 134.84 0 130.84 0Q130.29 0 129.9-0.21 129.51-0.43 129.16-0.88L129.16-0.88 120.84-11.25Q120.46-11.78 120.09-11.94 119.71-12.1 118.96-12.1L118.96-12.1 117.71-12.1 117.71 0 113.24 0 113.24-36.83ZM143.74 0L139.29 0 139.29-25.33 141.84-25.33Q142.56-25.33 142.84-25.05 143.11-24.78 143.21-24.1L143.21-24.1 143.51-20.15Q144.81-22.8 146.72-24.29 148.64-25.78 151.21-25.78L151.21-25.78Q152.26-25.78 153.11-25.54 153.96-25.3 154.69-24.88L154.69-24.88 154.11-21.55Q153.94-20.93 153.34-20.93L153.34-20.93Q152.99-20.93 152.26-21.16 151.54-21.4 150.24-21.4L150.24-21.4Q147.91-21.4 146.35-20.05 144.79-18.7 143.74-16.13L143.74-16.13 143.74 0ZM158.83-25.33L163.28-25.33 163.28-9.18Q163.28-6.3 164.61-4.73 165.93-3.15 168.61-3.15L168.61-3.15Q170.56-3.15 172.28-4.08 174.01-5 175.46-6.65L175.46-6.65 175.46-25.33 179.91-25.33 179.91 0 177.26 0Q176.31 0 176.06-0.93L176.06-0.93 175.71-3.65Q174.06-1.83 172.01-0.71 169.96 0.4 167.31 0.4L167.31 0.4Q165.23 0.4 163.65-0.29 162.06-0.98 160.98-2.23 159.91-3.48 159.37-5.25 158.83-7.03 158.83-9.18L158.83-9.18 158.83-25.33ZM195.76-25.75L195.76-25.75Q197.41-25.75 198.84-25.39 200.28-25.03 201.46-24.33L201.46-24.33 208.33-24.33 208.33-22.68Q208.33-21.85 207.28-21.63L207.28-21.63 204.41-21.23Q205.26-19.6 205.26-17.6L205.26-17.6Q205.26-15.75 204.54-14.24 203.83-12.73 202.57-11.65 201.31-10.58 199.57-10 197.83-9.43 195.76-9.43L195.76-9.43Q193.98-9.43 192.41-9.85L192.41-9.85Q191.61-9.35 191.19-8.78 190.78-8.2 190.78-7.65L190.78-7.65Q190.78-6.75 191.51-6.29 192.23-5.83 193.43-5.63 194.63-5.43 196.16-5.38 197.68-5.33 199.27-5.21 200.86-5.1 202.38-4.83 203.91-4.55 205.11-3.93 206.31-3.3 207.03-2.2 207.76-1.1 207.76 0.65L207.76 0.65Q207.76 2.27 206.94 3.8 206.13 5.33 204.61 6.51 203.08 7.7 200.88 8.41 198.68 9.13 195.91 9.13L195.91 9.13Q193.13 9.13 191.04 8.58 188.96 8.03 187.58 7.1 186.21 6.18 185.52 4.96 184.83 3.75 184.83 2.43L184.83 2.43Q184.83 0.55 186.02-0.76 187.21-2.08 189.28-2.85L189.28-2.85Q188.21-3.35 187.57-4.19 186.93-5.03 186.93-6.43L186.93-6.43Q186.93-6.98 187.13-7.56 187.33-8.15 187.74-8.72 188.16-9.3 188.76-9.83 189.36-10.35 190.16-10.75L190.16-10.75Q188.28-11.8 187.22-13.54 186.16-15.28 186.16-17.6L186.16-17.6Q186.16-19.45 186.87-20.96 187.58-22.48 188.86-23.54 190.13-24.6 191.89-25.18 193.66-25.75 195.76-25.75ZM203.66 1.38L203.66 1.38Q203.66 0.43 203.13-0.15 202.61-0.73 201.71-1.04 200.81-1.35 199.63-1.5 198.46-1.65 197.16-1.71 195.86-1.78 194.51-1.85 193.16-1.93 191.93-2.13L191.93-2.13Q190.51-1.45 189.62-0.48 188.73 0.5 188.73 1.85L188.73 1.85Q188.73 2.7 189.17 3.44 189.61 4.17 190.51 4.71 191.41 5.25 192.77 5.56 194.13 5.88 195.98 5.88L195.98 5.88Q197.78 5.88 199.21 5.55 200.63 5.23 201.62 4.63 202.61 4.03 203.13 3.2 203.66 2.38 203.66 1.38ZM195.76-12.38L195.76-12.38Q197.11-12.38 198.14-12.75 199.18-13.13 199.88-13.8 200.58-14.48 200.93-15.41 201.28-16.35 201.28-17.48L201.28-17.48Q201.28-19.8 199.87-21.18 198.46-22.55 195.76-22.55L195.76-22.55Q193.08-22.55 191.67-21.18 190.26-19.8 190.26-17.48L190.26-17.48Q190.26-16.35 190.62-15.41 190.98-14.48 191.68-13.8 192.38-13.13 193.41-12.75 194.43-12.38 195.76-12.38ZM222.8-25.73L222.8-25.73Q225.08-25.73 227-24.96 228.93-24.2 230.33-22.76 231.73-21.33 232.52-19.21 233.3-17.1 233.3-14.4L233.3-14.4Q233.3-13.35 233.08-13 232.85-12.65 232.23-12.65L232.23-12.65 215.38-12.65Q215.43-10.25 216.03-8.47 216.63-6.7 217.68-5.51 218.73-4.33 220.18-3.74 221.63-3.15 223.43-3.15L223.43-3.15Q225.1-3.15 226.32-3.54 227.53-3.93 228.4-4.38 229.28-4.83 229.87-5.21 230.45-5.6 230.88-5.6L230.88-5.6Q231.43-5.6 231.73-5.18L231.73-5.18 232.98-3.55Q232.15-2.55 231-1.81 229.85-1.07 228.54-0.6 227.23-0.13 225.83 0.11 224.43 0.35 223.05 0.35L223.05 0.35Q220.43 0.35 218.22-0.54 216-1.43 214.39-3.14 212.78-4.85 211.88-7.38 210.98-9.9 210.98-13.18L210.98-13.18Q210.98-15.83 211.79-18.13 212.6-20.43 214.13-22.11 215.65-23.8 217.85-24.76 220.05-25.73 222.8-25.73ZM222.9-22.45L222.9-22.45Q219.68-22.45 217.83-20.59 215.98-18.73 215.53-15.43L215.53-15.43 229.3-15.43Q229.3-16.98 228.88-18.26 228.45-19.55 227.63-20.49 226.8-21.43 225.62-21.94 224.43-22.45 222.9-22.45ZM243.43 0L238.98 0 238.98-25.33 241.53-25.33Q242.25-25.33 242.53-25.05 242.8-24.78 242.9-24.1L242.9-24.1 243.2-20.15Q244.5-22.8 246.41-24.29 248.33-25.78 250.9-25.78L250.9-25.78Q251.95-25.78 252.8-25.54 253.65-25.3 254.38-24.88L254.38-24.88 253.8-21.55Q253.63-20.93 253.03-20.93L253.03-20.93Q252.68-20.93 251.95-21.16 251.23-21.4 249.93-21.4L249.93-21.4Q247.6-21.4 246.04-20.05 244.48-18.7 243.43-16.13L243.43-16.13 243.43 0Z" opacity="1" transform="matrix(1,0,0,1,0,0)" fill="#ffffff" class="wordmark-text-0" data-fill-palette-color="primary" id="text-0"></path></svg></g></svg></g></svg></g></svg></g><g></g></svg></g></svg></g></svg></g></svg></g><defs></defs></svg><rect width="320" height="360" fill="none" stroke="none" visibility="hidden"></rect></g></svg></g></svg>